G75*
%MOIN*%
%OFA0B0*%
%FSLAX24Y24*%
%IPPOS*%
%LPD*%
%AMOC8*
5,1,8,0,0,1.08239X$1,22.5*
%
%ADD10C,0.0000*%
%ADD11C,0.0060*%
%ADD12C,0.0050*%
%ADD13C,0.0080*%
%ADD14C,0.0100*%
%ADD15R,0.0340X0.0240*%
%ADD16C,0.0020*%
D10*
X001281Y000100D02*
X024116Y000100D01*
X024182Y000102D01*
X024248Y000107D01*
X024314Y000117D01*
X024379Y000130D01*
X024443Y000146D01*
X024506Y000166D01*
X024568Y000190D01*
X024628Y000217D01*
X024687Y000247D01*
X024744Y000281D01*
X024799Y000318D01*
X024852Y000358D01*
X024903Y000400D01*
X024951Y000446D01*
X024997Y000494D01*
X025039Y000545D01*
X025079Y000598D01*
X025116Y000653D01*
X025150Y000710D01*
X025180Y000769D01*
X025207Y000829D01*
X025231Y000891D01*
X025251Y000954D01*
X025267Y001018D01*
X025280Y001083D01*
X025290Y001149D01*
X025295Y001215D01*
X025297Y001281D01*
X025297Y015454D01*
X025295Y015520D01*
X025290Y015586D01*
X025280Y015652D01*
X025267Y015717D01*
X025251Y015781D01*
X025231Y015844D01*
X025207Y015906D01*
X025180Y015966D01*
X025150Y016025D01*
X025116Y016082D01*
X025079Y016137D01*
X025039Y016190D01*
X024997Y016241D01*
X024951Y016289D01*
X024903Y016335D01*
X024852Y016377D01*
X024799Y016417D01*
X024744Y016454D01*
X024687Y016488D01*
X024628Y016518D01*
X024568Y016545D01*
X024506Y016569D01*
X024443Y016589D01*
X024379Y016605D01*
X024314Y016618D01*
X024248Y016628D01*
X024182Y016633D01*
X024116Y016635D01*
X001281Y016635D01*
X001215Y016633D01*
X001149Y016628D01*
X001083Y016618D01*
X001018Y016605D01*
X000954Y016589D01*
X000891Y016569D01*
X000829Y016545D01*
X000769Y016518D01*
X000710Y016488D01*
X000653Y016454D01*
X000598Y016417D01*
X000545Y016377D01*
X000494Y016335D01*
X000446Y016289D01*
X000400Y016241D01*
X000358Y016190D01*
X000318Y016137D01*
X000281Y016082D01*
X000247Y016025D01*
X000217Y015966D01*
X000190Y015906D01*
X000166Y015844D01*
X000146Y015781D01*
X000130Y015717D01*
X000117Y015652D01*
X000107Y015586D01*
X000102Y015520D01*
X000100Y015454D01*
X000100Y001281D01*
X000102Y001215D01*
X000107Y001149D01*
X000117Y001083D01*
X000130Y001018D01*
X000146Y000954D01*
X000166Y000891D01*
X000190Y000829D01*
X000217Y000769D01*
X000247Y000710D01*
X000281Y000653D01*
X000318Y000598D01*
X000358Y000545D01*
X000400Y000494D01*
X000446Y000446D01*
X000494Y000400D01*
X000545Y000358D01*
X000598Y000318D01*
X000653Y000281D01*
X000710Y000247D01*
X000769Y000217D01*
X000829Y000190D01*
X000891Y000166D01*
X000954Y000146D01*
X001018Y000130D01*
X001083Y000117D01*
X001149Y000107D01*
X001215Y000102D01*
X001281Y000100D01*
X001045Y001675D02*
X001047Y001725D01*
X001053Y001775D01*
X001063Y001824D01*
X001077Y001872D01*
X001094Y001919D01*
X001115Y001964D01*
X001140Y002008D01*
X001168Y002049D01*
X001200Y002088D01*
X001234Y002125D01*
X001271Y002159D01*
X001311Y002189D01*
X001353Y002216D01*
X001397Y002240D01*
X001443Y002261D01*
X001490Y002277D01*
X001538Y002290D01*
X001588Y002299D01*
X001637Y002304D01*
X001688Y002305D01*
X001738Y002302D01*
X001787Y002295D01*
X001836Y002284D01*
X001884Y002269D01*
X001930Y002251D01*
X001975Y002229D01*
X002018Y002203D01*
X002059Y002174D01*
X002098Y002142D01*
X002134Y002107D01*
X002166Y002069D01*
X002196Y002029D01*
X002223Y001986D01*
X002246Y001942D01*
X002265Y001896D01*
X002281Y001848D01*
X002293Y001799D01*
X002301Y001750D01*
X002305Y001700D01*
X002305Y001650D01*
X002301Y001600D01*
X002293Y001551D01*
X002281Y001502D01*
X002265Y001454D01*
X002246Y001408D01*
X002223Y001364D01*
X002196Y001321D01*
X002166Y001281D01*
X002134Y001243D01*
X002098Y001208D01*
X002059Y001176D01*
X002018Y001147D01*
X001975Y001121D01*
X001930Y001099D01*
X001884Y001081D01*
X001836Y001066D01*
X001787Y001055D01*
X001738Y001048D01*
X001688Y001045D01*
X001637Y001046D01*
X001588Y001051D01*
X001538Y001060D01*
X001490Y001073D01*
X001443Y001089D01*
X001397Y001110D01*
X001353Y001134D01*
X001311Y001161D01*
X001271Y001191D01*
X001234Y001225D01*
X001200Y001262D01*
X001168Y001301D01*
X001140Y001342D01*
X001115Y001386D01*
X001094Y001431D01*
X001077Y001478D01*
X001063Y001526D01*
X001053Y001575D01*
X001047Y001625D01*
X001045Y001675D01*
X001045Y015061D02*
X001047Y015111D01*
X001053Y015161D01*
X001063Y015210D01*
X001077Y015258D01*
X001094Y015305D01*
X001115Y015350D01*
X001140Y015394D01*
X001168Y015435D01*
X001200Y015474D01*
X001234Y015511D01*
X001271Y015545D01*
X001311Y015575D01*
X001353Y015602D01*
X001397Y015626D01*
X001443Y015647D01*
X001490Y015663D01*
X001538Y015676D01*
X001588Y015685D01*
X001637Y015690D01*
X001688Y015691D01*
X001738Y015688D01*
X001787Y015681D01*
X001836Y015670D01*
X001884Y015655D01*
X001930Y015637D01*
X001975Y015615D01*
X002018Y015589D01*
X002059Y015560D01*
X002098Y015528D01*
X002134Y015493D01*
X002166Y015455D01*
X002196Y015415D01*
X002223Y015372D01*
X002246Y015328D01*
X002265Y015282D01*
X002281Y015234D01*
X002293Y015185D01*
X002301Y015136D01*
X002305Y015086D01*
X002305Y015036D01*
X002301Y014986D01*
X002293Y014937D01*
X002281Y014888D01*
X002265Y014840D01*
X002246Y014794D01*
X002223Y014750D01*
X002196Y014707D01*
X002166Y014667D01*
X002134Y014629D01*
X002098Y014594D01*
X002059Y014562D01*
X002018Y014533D01*
X001975Y014507D01*
X001930Y014485D01*
X001884Y014467D01*
X001836Y014452D01*
X001787Y014441D01*
X001738Y014434D01*
X001688Y014431D01*
X001637Y014432D01*
X001588Y014437D01*
X001538Y014446D01*
X001490Y014459D01*
X001443Y014475D01*
X001397Y014496D01*
X001353Y014520D01*
X001311Y014547D01*
X001271Y014577D01*
X001234Y014611D01*
X001200Y014648D01*
X001168Y014687D01*
X001140Y014728D01*
X001115Y014772D01*
X001094Y014817D01*
X001077Y014864D01*
X001063Y014912D01*
X001053Y014961D01*
X001047Y015011D01*
X001045Y015061D01*
X023092Y015061D02*
X023094Y015111D01*
X023100Y015161D01*
X023110Y015210D01*
X023124Y015258D01*
X023141Y015305D01*
X023162Y015350D01*
X023187Y015394D01*
X023215Y015435D01*
X023247Y015474D01*
X023281Y015511D01*
X023318Y015545D01*
X023358Y015575D01*
X023400Y015602D01*
X023444Y015626D01*
X023490Y015647D01*
X023537Y015663D01*
X023585Y015676D01*
X023635Y015685D01*
X023684Y015690D01*
X023735Y015691D01*
X023785Y015688D01*
X023834Y015681D01*
X023883Y015670D01*
X023931Y015655D01*
X023977Y015637D01*
X024022Y015615D01*
X024065Y015589D01*
X024106Y015560D01*
X024145Y015528D01*
X024181Y015493D01*
X024213Y015455D01*
X024243Y015415D01*
X024270Y015372D01*
X024293Y015328D01*
X024312Y015282D01*
X024328Y015234D01*
X024340Y015185D01*
X024348Y015136D01*
X024352Y015086D01*
X024352Y015036D01*
X024348Y014986D01*
X024340Y014937D01*
X024328Y014888D01*
X024312Y014840D01*
X024293Y014794D01*
X024270Y014750D01*
X024243Y014707D01*
X024213Y014667D01*
X024181Y014629D01*
X024145Y014594D01*
X024106Y014562D01*
X024065Y014533D01*
X024022Y014507D01*
X023977Y014485D01*
X023931Y014467D01*
X023883Y014452D01*
X023834Y014441D01*
X023785Y014434D01*
X023735Y014431D01*
X023684Y014432D01*
X023635Y014437D01*
X023585Y014446D01*
X023537Y014459D01*
X023490Y014475D01*
X023444Y014496D01*
X023400Y014520D01*
X023358Y014547D01*
X023318Y014577D01*
X023281Y014611D01*
X023247Y014648D01*
X023215Y014687D01*
X023187Y014728D01*
X023162Y014772D01*
X023141Y014817D01*
X023124Y014864D01*
X023110Y014912D01*
X023100Y014961D01*
X023094Y015011D01*
X023092Y015061D01*
X023092Y001675D02*
X023094Y001725D01*
X023100Y001775D01*
X023110Y001824D01*
X023124Y001872D01*
X023141Y001919D01*
X023162Y001964D01*
X023187Y002008D01*
X023215Y002049D01*
X023247Y002088D01*
X023281Y002125D01*
X023318Y002159D01*
X023358Y002189D01*
X023400Y002216D01*
X023444Y002240D01*
X023490Y002261D01*
X023537Y002277D01*
X023585Y002290D01*
X023635Y002299D01*
X023684Y002304D01*
X023735Y002305D01*
X023785Y002302D01*
X023834Y002295D01*
X023883Y002284D01*
X023931Y002269D01*
X023977Y002251D01*
X024022Y002229D01*
X024065Y002203D01*
X024106Y002174D01*
X024145Y002142D01*
X024181Y002107D01*
X024213Y002069D01*
X024243Y002029D01*
X024270Y001986D01*
X024293Y001942D01*
X024312Y001896D01*
X024328Y001848D01*
X024340Y001799D01*
X024348Y001750D01*
X024352Y001700D01*
X024352Y001650D01*
X024348Y001600D01*
X024340Y001551D01*
X024328Y001502D01*
X024312Y001454D01*
X024293Y001408D01*
X024270Y001364D01*
X024243Y001321D01*
X024213Y001281D01*
X024181Y001243D01*
X024145Y001208D01*
X024106Y001176D01*
X024065Y001147D01*
X024022Y001121D01*
X023977Y001099D01*
X023931Y001081D01*
X023883Y001066D01*
X023834Y001055D01*
X023785Y001048D01*
X023735Y001045D01*
X023684Y001046D01*
X023635Y001051D01*
X023585Y001060D01*
X023537Y001073D01*
X023490Y001089D01*
X023444Y001110D01*
X023400Y001134D01*
X023358Y001161D01*
X023318Y001191D01*
X023281Y001225D01*
X023247Y001262D01*
X023215Y001301D01*
X023187Y001342D01*
X023162Y001386D01*
X023141Y001431D01*
X023124Y001478D01*
X023110Y001526D01*
X023100Y001575D01*
X023094Y001625D01*
X023092Y001675D01*
D11*
X021866Y002024D02*
X021866Y002724D01*
X021864Y002741D01*
X021860Y002758D01*
X021853Y002774D01*
X021843Y002788D01*
X021830Y002801D01*
X021816Y002811D01*
X021800Y002818D01*
X021783Y002822D01*
X021766Y002824D01*
X021616Y002824D01*
X021566Y002774D01*
X019666Y002774D01*
X019616Y002824D01*
X019466Y002824D01*
X019449Y002822D01*
X019432Y002818D01*
X019416Y002811D01*
X019402Y002801D01*
X019389Y002788D01*
X019379Y002774D01*
X019372Y002758D01*
X019368Y002741D01*
X019366Y002724D01*
X019366Y002024D01*
X019368Y002007D01*
X019372Y001990D01*
X019379Y001974D01*
X019389Y001960D01*
X019402Y001947D01*
X019416Y001937D01*
X019432Y001930D01*
X019449Y001926D01*
X019466Y001924D01*
X019616Y001924D01*
X019666Y001974D01*
X021566Y001974D01*
X021616Y001924D01*
X021766Y001924D01*
X021783Y001926D01*
X021800Y001930D01*
X021816Y001937D01*
X021830Y001947D01*
X021843Y001960D01*
X021853Y001974D01*
X021860Y001990D01*
X021864Y002007D01*
X021866Y002024D01*
X020006Y004084D02*
X019506Y004084D01*
X019256Y004334D01*
X019256Y004834D01*
X019506Y005084D01*
X019256Y005334D01*
X019256Y005834D01*
X019506Y006084D01*
X019256Y006334D01*
X019256Y006834D01*
X019506Y007084D01*
X020006Y007084D01*
X020256Y006834D01*
X020256Y006334D01*
X020006Y006084D01*
X020256Y005834D01*
X020256Y005334D01*
X020006Y005084D01*
X020256Y004834D01*
X020256Y004334D01*
X020006Y004084D01*
X021576Y005084D02*
X021578Y005147D01*
X021584Y005209D01*
X021594Y005271D01*
X021607Y005333D01*
X021625Y005393D01*
X021646Y005452D01*
X021671Y005510D01*
X021700Y005566D01*
X021732Y005620D01*
X021767Y005672D01*
X021805Y005721D01*
X021847Y005769D01*
X021891Y005813D01*
X021939Y005855D01*
X021988Y005893D01*
X022040Y005928D01*
X022094Y005960D01*
X022150Y005989D01*
X022208Y006014D01*
X022267Y006035D01*
X022327Y006053D01*
X022389Y006066D01*
X022451Y006076D01*
X022513Y006082D01*
X022576Y006084D01*
X022639Y006082D01*
X022701Y006076D01*
X022763Y006066D01*
X022825Y006053D01*
X022885Y006035D01*
X022944Y006014D01*
X023002Y005989D01*
X023058Y005960D01*
X023112Y005928D01*
X023164Y005893D01*
X023213Y005855D01*
X023261Y005813D01*
X023305Y005769D01*
X023347Y005721D01*
X023385Y005672D01*
X023420Y005620D01*
X023452Y005566D01*
X023481Y005510D01*
X023506Y005452D01*
X023527Y005393D01*
X023545Y005333D01*
X023558Y005271D01*
X023568Y005209D01*
X023574Y005147D01*
X023576Y005084D01*
X023574Y005021D01*
X023568Y004959D01*
X023558Y004897D01*
X023545Y004835D01*
X023527Y004775D01*
X023506Y004716D01*
X023481Y004658D01*
X023452Y004602D01*
X023420Y004548D01*
X023385Y004496D01*
X023347Y004447D01*
X023305Y004399D01*
X023261Y004355D01*
X023213Y004313D01*
X023164Y004275D01*
X023112Y004240D01*
X023058Y004208D01*
X023002Y004179D01*
X022944Y004154D01*
X022885Y004133D01*
X022825Y004115D01*
X022763Y004102D01*
X022701Y004092D01*
X022639Y004086D01*
X022576Y004084D01*
X022513Y004086D01*
X022451Y004092D01*
X022389Y004102D01*
X022327Y004115D01*
X022267Y004133D01*
X022208Y004154D01*
X022150Y004179D01*
X022094Y004208D01*
X022040Y004240D01*
X021988Y004275D01*
X021939Y004313D01*
X021891Y004355D01*
X021847Y004399D01*
X021805Y004447D01*
X021767Y004496D01*
X021732Y004548D01*
X021700Y004602D01*
X021671Y004658D01*
X021646Y004716D01*
X021625Y004775D01*
X021607Y004835D01*
X021594Y004897D01*
X021584Y004959D01*
X021578Y005021D01*
X021576Y005084D01*
X017166Y005054D02*
X017166Y004704D01*
X017166Y005054D02*
X017166Y006004D01*
X017166Y006404D01*
X016366Y006754D02*
X016266Y006754D01*
X016266Y006854D01*
X015666Y006854D01*
X015666Y006754D01*
X015566Y006754D01*
X014766Y006404D02*
X014766Y006054D01*
X014766Y005054D01*
X014766Y004704D01*
X015566Y004354D02*
X015666Y004354D01*
X015666Y004254D01*
X016266Y004254D01*
X016266Y004354D01*
X016366Y004354D01*
X015866Y005554D02*
X015868Y005574D01*
X015874Y005592D01*
X015883Y005610D01*
X015895Y005625D01*
X015910Y005637D01*
X015928Y005646D01*
X015946Y005652D01*
X015966Y005654D01*
X015986Y005652D01*
X016004Y005646D01*
X016022Y005637D01*
X016037Y005625D01*
X016049Y005610D01*
X016058Y005592D01*
X016064Y005574D01*
X016066Y005554D01*
X016064Y005534D01*
X016058Y005516D01*
X016049Y005498D01*
X016037Y005483D01*
X016022Y005471D01*
X016004Y005462D01*
X015986Y005456D01*
X015966Y005454D01*
X015946Y005456D01*
X015928Y005462D01*
X015910Y005471D01*
X015895Y005483D01*
X015883Y005498D01*
X015874Y005516D01*
X015868Y005534D01*
X015866Y005554D01*
X015266Y005554D02*
X015268Y005606D01*
X015274Y005658D01*
X015284Y005710D01*
X015297Y005760D01*
X015314Y005810D01*
X015335Y005858D01*
X015360Y005904D01*
X015388Y005948D01*
X015419Y005990D01*
X015453Y006030D01*
X015490Y006067D01*
X015530Y006101D01*
X015572Y006132D01*
X015616Y006160D01*
X015662Y006185D01*
X015710Y006206D01*
X015760Y006223D01*
X015810Y006236D01*
X015862Y006246D01*
X015914Y006252D01*
X015966Y006254D01*
X016018Y006252D01*
X016070Y006246D01*
X016122Y006236D01*
X016172Y006223D01*
X016222Y006206D01*
X016270Y006185D01*
X016316Y006160D01*
X016360Y006132D01*
X016402Y006101D01*
X016442Y006067D01*
X016479Y006030D01*
X016513Y005990D01*
X016544Y005948D01*
X016572Y005904D01*
X016597Y005858D01*
X016618Y005810D01*
X016635Y005760D01*
X016648Y005710D01*
X016658Y005658D01*
X016664Y005606D01*
X016666Y005554D01*
X016664Y005502D01*
X016658Y005450D01*
X016648Y005398D01*
X016635Y005348D01*
X016618Y005298D01*
X016597Y005250D01*
X016572Y005204D01*
X016544Y005160D01*
X016513Y005118D01*
X016479Y005078D01*
X016442Y005041D01*
X016402Y005007D01*
X016360Y004976D01*
X016316Y004948D01*
X016270Y004923D01*
X016222Y004902D01*
X016172Y004885D01*
X016122Y004872D01*
X016070Y004862D01*
X016018Y004856D01*
X015966Y004854D01*
X015914Y004856D01*
X015862Y004862D01*
X015810Y004872D01*
X015760Y004885D01*
X015710Y004902D01*
X015662Y004923D01*
X015616Y004948D01*
X015572Y004976D01*
X015530Y005007D01*
X015490Y005041D01*
X015453Y005078D01*
X015419Y005118D01*
X015388Y005160D01*
X015360Y005204D01*
X015335Y005250D01*
X015314Y005298D01*
X015297Y005348D01*
X015284Y005398D01*
X015274Y005450D01*
X015268Y005502D01*
X015266Y005554D01*
X009986Y005834D02*
X009988Y005897D01*
X009994Y005959D01*
X010004Y006021D01*
X010017Y006083D01*
X010035Y006143D01*
X010056Y006202D01*
X010081Y006260D01*
X010110Y006316D01*
X010142Y006370D01*
X010177Y006422D01*
X010215Y006471D01*
X010257Y006519D01*
X010301Y006563D01*
X010349Y006605D01*
X010398Y006643D01*
X010450Y006678D01*
X010504Y006710D01*
X010560Y006739D01*
X010618Y006764D01*
X010677Y006785D01*
X010737Y006803D01*
X010799Y006816D01*
X010861Y006826D01*
X010923Y006832D01*
X010986Y006834D01*
X011049Y006832D01*
X011111Y006826D01*
X011173Y006816D01*
X011235Y006803D01*
X011295Y006785D01*
X011354Y006764D01*
X011412Y006739D01*
X011468Y006710D01*
X011522Y006678D01*
X011574Y006643D01*
X011623Y006605D01*
X011671Y006563D01*
X011715Y006519D01*
X011757Y006471D01*
X011795Y006422D01*
X011830Y006370D01*
X011862Y006316D01*
X011891Y006260D01*
X011916Y006202D01*
X011937Y006143D01*
X011955Y006083D01*
X011968Y006021D01*
X011978Y005959D01*
X011984Y005897D01*
X011986Y005834D01*
X011984Y005771D01*
X011978Y005709D01*
X011968Y005647D01*
X011955Y005585D01*
X011937Y005525D01*
X011916Y005466D01*
X011891Y005408D01*
X011862Y005352D01*
X011830Y005298D01*
X011795Y005246D01*
X011757Y005197D01*
X011715Y005149D01*
X011671Y005105D01*
X011623Y005063D01*
X011574Y005025D01*
X011522Y004990D01*
X011468Y004958D01*
X011412Y004929D01*
X011354Y004904D01*
X011295Y004883D01*
X011235Y004865D01*
X011173Y004852D01*
X011111Y004842D01*
X011049Y004836D01*
X010986Y004834D01*
X010923Y004836D01*
X010861Y004842D01*
X010799Y004852D01*
X010737Y004865D01*
X010677Y004883D01*
X010618Y004904D01*
X010560Y004929D01*
X010504Y004958D01*
X010450Y004990D01*
X010398Y005025D01*
X010349Y005063D01*
X010301Y005105D01*
X010257Y005149D01*
X010215Y005197D01*
X010177Y005246D01*
X010142Y005298D01*
X010110Y005352D01*
X010081Y005408D01*
X010056Y005466D01*
X010035Y005525D01*
X010017Y005585D01*
X010004Y005647D01*
X009994Y005709D01*
X009988Y005771D01*
X009986Y005834D01*
X008726Y006074D02*
X008726Y006574D01*
X008476Y006824D01*
X008726Y007074D01*
X008726Y007574D01*
X008476Y007824D01*
X007976Y007824D01*
X007726Y007574D01*
X007726Y007074D01*
X007976Y006824D01*
X007726Y006574D01*
X007726Y006074D01*
X007976Y005824D01*
X007726Y005574D01*
X007726Y005074D01*
X007976Y004824D01*
X008476Y004824D01*
X008726Y005074D01*
X008726Y005574D01*
X008476Y005824D01*
X008726Y006074D01*
X007986Y004314D02*
X007836Y004314D01*
X007819Y004312D01*
X007802Y004308D01*
X007786Y004301D01*
X007772Y004291D01*
X007759Y004278D01*
X007749Y004264D01*
X007742Y004248D01*
X007738Y004231D01*
X007736Y004214D01*
X007736Y003514D01*
X007738Y003497D01*
X007742Y003480D01*
X007749Y003464D01*
X007759Y003450D01*
X007772Y003437D01*
X007786Y003427D01*
X007802Y003420D01*
X007819Y003416D01*
X007836Y003414D01*
X007986Y003414D01*
X008036Y003464D01*
X009936Y003464D01*
X009986Y003414D01*
X010136Y003414D01*
X010153Y003416D01*
X010170Y003420D01*
X010186Y003427D01*
X010200Y003437D01*
X010213Y003450D01*
X010223Y003464D01*
X010230Y003480D01*
X010234Y003497D01*
X010236Y003514D01*
X010236Y004214D01*
X010234Y004231D01*
X010230Y004248D01*
X010223Y004264D01*
X010213Y004278D01*
X010200Y004291D01*
X010186Y004301D01*
X010170Y004308D01*
X010153Y004312D01*
X010136Y004314D01*
X009986Y004314D01*
X009936Y004264D01*
X008036Y004264D01*
X007986Y004314D01*
X005046Y004254D02*
X005046Y003554D01*
X005044Y003537D01*
X005040Y003520D01*
X005033Y003504D01*
X005023Y003490D01*
X005010Y003477D01*
X004996Y003467D01*
X004980Y003460D01*
X004963Y003456D01*
X004946Y003454D01*
X004796Y003454D01*
X004746Y003504D01*
X002846Y003504D01*
X002796Y003454D01*
X002646Y003454D01*
X002629Y003456D01*
X002612Y003460D01*
X002596Y003467D01*
X002582Y003477D01*
X002569Y003490D01*
X002559Y003504D01*
X002552Y003520D01*
X002548Y003537D01*
X002546Y003554D01*
X002546Y004254D01*
X002548Y004271D01*
X002552Y004288D01*
X002559Y004304D01*
X002569Y004318D01*
X002582Y004331D01*
X002596Y004341D01*
X002612Y004348D01*
X002629Y004352D01*
X002646Y004354D01*
X002796Y004354D01*
X002846Y004304D01*
X004746Y004304D01*
X004796Y004354D01*
X004946Y004354D01*
X004963Y004352D01*
X004980Y004348D01*
X004996Y004341D01*
X005010Y004331D01*
X005023Y004318D01*
X005033Y004304D01*
X005040Y004288D01*
X005044Y004271D01*
X005046Y004254D01*
X004536Y004844D02*
X004036Y004844D01*
X003786Y005094D01*
X003786Y005594D01*
X004036Y005844D01*
X003786Y006094D01*
X003786Y006594D01*
X004036Y006844D01*
X003786Y007094D01*
X003786Y007594D01*
X004036Y007844D01*
X004536Y007844D01*
X004786Y007594D01*
X004786Y007094D01*
X004536Y006844D01*
X004786Y006594D01*
X004786Y006094D01*
X004536Y005844D01*
X004786Y005594D01*
X004786Y005094D01*
X004536Y004844D01*
X000806Y005804D02*
X000808Y005867D01*
X000814Y005929D01*
X000824Y005991D01*
X000837Y006053D01*
X000855Y006113D01*
X000876Y006172D01*
X000901Y006230D01*
X000930Y006286D01*
X000962Y006340D01*
X000997Y006392D01*
X001035Y006441D01*
X001077Y006489D01*
X001121Y006533D01*
X001169Y006575D01*
X001218Y006613D01*
X001270Y006648D01*
X001324Y006680D01*
X001380Y006709D01*
X001438Y006734D01*
X001497Y006755D01*
X001557Y006773D01*
X001619Y006786D01*
X001681Y006796D01*
X001743Y006802D01*
X001806Y006804D01*
X001869Y006802D01*
X001931Y006796D01*
X001993Y006786D01*
X002055Y006773D01*
X002115Y006755D01*
X002174Y006734D01*
X002232Y006709D01*
X002288Y006680D01*
X002342Y006648D01*
X002394Y006613D01*
X002443Y006575D01*
X002491Y006533D01*
X002535Y006489D01*
X002577Y006441D01*
X002615Y006392D01*
X002650Y006340D01*
X002682Y006286D01*
X002711Y006230D01*
X002736Y006172D01*
X002757Y006113D01*
X002775Y006053D01*
X002788Y005991D01*
X002798Y005929D01*
X002804Y005867D01*
X002806Y005804D01*
X002804Y005741D01*
X002798Y005679D01*
X002788Y005617D01*
X002775Y005555D01*
X002757Y005495D01*
X002736Y005436D01*
X002711Y005378D01*
X002682Y005322D01*
X002650Y005268D01*
X002615Y005216D01*
X002577Y005167D01*
X002535Y005119D01*
X002491Y005075D01*
X002443Y005033D01*
X002394Y004995D01*
X002342Y004960D01*
X002288Y004928D01*
X002232Y004899D01*
X002174Y004874D01*
X002115Y004853D01*
X002055Y004835D01*
X001993Y004822D01*
X001931Y004812D01*
X001869Y004806D01*
X001806Y004804D01*
X001743Y004806D01*
X001681Y004812D01*
X001619Y004822D01*
X001557Y004835D01*
X001497Y004853D01*
X001438Y004874D01*
X001380Y004899D01*
X001324Y004928D01*
X001270Y004960D01*
X001218Y004995D01*
X001169Y005033D01*
X001121Y005075D01*
X001077Y005119D01*
X001035Y005167D01*
X000997Y005216D01*
X000962Y005268D01*
X000930Y005322D01*
X000901Y005378D01*
X000876Y005436D01*
X000855Y005495D01*
X000837Y005555D01*
X000824Y005617D01*
X000814Y005679D01*
X000808Y005741D01*
X000806Y005804D01*
X017781Y015364D02*
X018101Y015364D01*
X018208Y015470D01*
X018208Y015577D01*
X018101Y015684D01*
X017781Y015684D01*
X018101Y015684D02*
X018208Y015791D01*
X018208Y015897D01*
X018101Y016004D01*
X017781Y016004D01*
X017781Y015364D01*
X018426Y015470D02*
X018532Y015364D01*
X018746Y015364D01*
X018853Y015470D01*
X018853Y015577D01*
X018746Y015684D01*
X018532Y015684D01*
X018426Y015791D01*
X018426Y015897D01*
X018532Y016004D01*
X018746Y016004D01*
X018853Y015897D01*
X018853Y015791D01*
X018746Y015684D01*
X018532Y015684D02*
X018426Y015577D01*
X018426Y015470D01*
X019070Y015364D02*
X019497Y015791D01*
X019497Y015897D01*
X019390Y016004D01*
X019177Y016004D01*
X019070Y015897D01*
X019070Y015364D02*
X019497Y015364D01*
X019715Y015577D02*
X019928Y015364D01*
X020142Y015577D01*
X020142Y016004D01*
X020359Y015791D02*
X020573Y016004D01*
X020573Y015364D01*
X020786Y015364D02*
X020359Y015364D01*
X019715Y015577D02*
X019715Y016004D01*
X021004Y015470D02*
X021004Y015364D01*
X021111Y015364D01*
X021111Y015470D01*
X021004Y015470D01*
X021326Y015470D02*
X021433Y015364D01*
X021646Y015364D01*
X021753Y015470D01*
X021753Y015897D01*
X021326Y015470D01*
X021326Y015897D01*
X021433Y016004D01*
X021646Y016004D01*
X021753Y015897D01*
X021971Y015897D02*
X022077Y016004D01*
X022291Y016004D01*
X022398Y015897D01*
X021971Y015470D01*
X022077Y015364D01*
X022291Y015364D01*
X022398Y015470D01*
X022398Y015897D01*
X021971Y015897D02*
X021971Y015470D01*
D12*
X018994Y013547D02*
X018688Y013547D01*
X018587Y013445D01*
X018688Y013344D01*
X018892Y013344D01*
X018994Y013242D01*
X018892Y013140D01*
X018587Y013140D01*
X018386Y013140D02*
X018386Y013547D01*
X018386Y013140D02*
X018081Y013140D01*
X017979Y013242D01*
X017979Y013547D01*
X017777Y013547D02*
X017574Y013547D01*
X017675Y013649D02*
X017675Y013242D01*
X017777Y013140D01*
X017373Y013140D02*
X017068Y013140D01*
X016966Y013242D01*
X017068Y013344D01*
X017373Y013344D01*
X017373Y013445D02*
X017271Y013547D01*
X017068Y013547D01*
X016764Y013547D02*
X016561Y013547D01*
X016663Y013649D02*
X016663Y013242D01*
X016764Y013140D01*
X016360Y013242D02*
X016258Y013140D01*
X016055Y013140D01*
X015953Y013242D01*
X015752Y013140D02*
X015650Y013242D01*
X015650Y013649D01*
X015548Y013547D02*
X015752Y013547D01*
X015953Y013547D02*
X015953Y013649D01*
X016055Y013751D01*
X016258Y013751D01*
X016360Y013649D01*
X016258Y013445D02*
X016360Y013344D01*
X016360Y013242D01*
X016258Y013445D02*
X016055Y013445D01*
X015953Y013547D01*
X015347Y013445D02*
X015347Y013242D01*
X015246Y013140D01*
X015042Y013140D01*
X014940Y013242D01*
X014940Y013445D01*
X015042Y013547D01*
X015246Y013547D01*
X015347Y013445D01*
X014740Y013445D02*
X014740Y013242D01*
X014638Y013140D01*
X014333Y013140D01*
X014333Y013751D01*
X014333Y013547D02*
X014638Y013547D01*
X014740Y013445D01*
X014132Y013445D02*
X014132Y013242D01*
X014030Y013140D01*
X013827Y013140D01*
X013725Y013242D01*
X013725Y013445D01*
X013827Y013547D01*
X014030Y013547D01*
X014132Y013445D01*
X013524Y013445D02*
X013422Y013344D01*
X013117Y013344D01*
X013321Y013344D02*
X013524Y013140D01*
X013117Y013140D02*
X013117Y013751D01*
X013422Y013751D01*
X013524Y013649D01*
X013524Y013445D01*
X013422Y012761D02*
X013219Y012761D01*
X013117Y012659D01*
X013117Y012252D01*
X013219Y012150D01*
X013422Y012150D01*
X013524Y012252D01*
X013725Y012150D02*
X013725Y012557D01*
X013827Y012557D01*
X013928Y012455D01*
X014030Y012557D01*
X014132Y012455D01*
X014132Y012150D01*
X013928Y012150D02*
X013928Y012455D01*
X014333Y012455D02*
X014333Y012252D01*
X014434Y012150D01*
X014740Y012150D01*
X014740Y012761D01*
X014740Y012557D02*
X014434Y012557D01*
X014333Y012455D01*
X014940Y012048D02*
X015347Y012048D01*
X015345Y011771D02*
X015447Y011771D01*
X015447Y011160D01*
X015345Y011160D02*
X015549Y011160D01*
X015751Y011160D02*
X015954Y011160D01*
X015852Y011160D02*
X015852Y011771D01*
X015751Y011771D01*
X015752Y012150D02*
X015752Y012761D01*
X015955Y012761D02*
X015548Y012761D01*
X016156Y012455D02*
X016156Y012252D01*
X016257Y012150D01*
X016461Y012150D01*
X016563Y012252D01*
X016563Y012455D01*
X016461Y012557D01*
X016257Y012557D01*
X016156Y012455D01*
X016763Y012048D02*
X017170Y012048D01*
X017371Y012150D02*
X017371Y012761D01*
X017676Y012761D01*
X017778Y012659D01*
X017778Y012455D01*
X017676Y012354D01*
X017371Y012354D01*
X017575Y012354D02*
X017778Y012150D01*
X017979Y012252D02*
X018081Y012150D01*
X018284Y012150D01*
X018386Y012252D01*
X018386Y012455D01*
X018284Y012557D01*
X018081Y012557D01*
X017979Y012455D01*
X017979Y012252D01*
X018587Y012150D02*
X018892Y012150D01*
X018994Y012252D01*
X018994Y012455D01*
X018892Y012557D01*
X018587Y012557D01*
X018587Y012761D02*
X018587Y012150D01*
X019194Y012252D02*
X019296Y012150D01*
X019500Y012150D01*
X019601Y012252D01*
X019601Y012455D01*
X019500Y012557D01*
X019296Y012557D01*
X019194Y012455D01*
X019194Y012252D01*
X019802Y012557D02*
X020006Y012557D01*
X019904Y012659D02*
X019904Y012252D01*
X020006Y012150D01*
X017981Y010475D02*
X017879Y010577D01*
X017675Y010577D01*
X017574Y010475D01*
X017574Y010272D01*
X017675Y010170D01*
X017879Y010170D01*
X017981Y010374D02*
X017574Y010374D01*
X017372Y010170D02*
X017270Y010272D01*
X017270Y010679D01*
X017169Y010577D02*
X017372Y010577D01*
X016968Y010475D02*
X016968Y010170D01*
X016663Y010170D01*
X016561Y010272D01*
X016663Y010374D01*
X016968Y010374D01*
X016968Y010475D02*
X016866Y010577D01*
X016663Y010577D01*
X016257Y010781D02*
X016257Y010170D01*
X016156Y010170D02*
X016359Y010170D01*
X015955Y010272D02*
X015955Y010475D01*
X015853Y010577D01*
X015650Y010577D01*
X015548Y010475D01*
X015548Y010272D01*
X015650Y010170D01*
X015853Y010170D01*
X015955Y010272D01*
X015347Y010170D02*
X015042Y010170D01*
X014940Y010272D01*
X014940Y010475D01*
X015042Y010577D01*
X015347Y010577D01*
X014740Y010475D02*
X014740Y010272D01*
X014638Y010170D01*
X014434Y010170D01*
X014333Y010272D01*
X014333Y010475D01*
X014434Y010577D01*
X014638Y010577D01*
X014740Y010475D01*
X014132Y010475D02*
X014132Y010170D01*
X014132Y010475D02*
X014030Y010577D01*
X013827Y010577D01*
X013725Y010475D01*
X013524Y010272D02*
X013422Y010170D01*
X013219Y010170D01*
X013117Y010272D01*
X013117Y010679D01*
X013219Y010781D01*
X013422Y010781D01*
X013524Y010679D01*
X013725Y010781D02*
X013725Y010170D01*
X013827Y011160D02*
X013725Y011262D01*
X013827Y011364D01*
X014132Y011364D01*
X014132Y011465D02*
X014132Y011160D01*
X013827Y011160D01*
X013524Y011364D02*
X013321Y011160D01*
X013117Y011364D01*
X013117Y011771D01*
X013524Y011771D02*
X013524Y011364D01*
X013827Y011567D02*
X014030Y011567D01*
X014132Y011465D01*
X014333Y011567D02*
X014638Y011567D01*
X014740Y011465D01*
X014740Y011160D01*
X014940Y011160D02*
X015144Y011160D01*
X015042Y011160D02*
X015042Y011567D01*
X014940Y011567D01*
X015042Y011771D02*
X015042Y011872D01*
X014333Y011567D02*
X014333Y011160D01*
X016156Y011262D02*
X016257Y011160D01*
X016563Y011160D01*
X016563Y011465D01*
X016461Y011567D01*
X016257Y011567D01*
X016257Y011364D02*
X016563Y011364D01*
X016257Y011364D02*
X016156Y011262D01*
X016156Y010781D02*
X016257Y010781D01*
X017981Y010475D02*
X017981Y010374D01*
X019221Y008280D02*
X019446Y008280D01*
X019521Y008205D01*
X019521Y008055D01*
X019446Y007980D01*
X019221Y007980D01*
X019371Y007980D02*
X019521Y007829D01*
X019681Y007905D02*
X019756Y007829D01*
X019907Y007829D01*
X019982Y007905D01*
X019982Y008205D01*
X019907Y008280D01*
X019756Y008280D01*
X019681Y008205D01*
X019681Y007905D01*
X020142Y007829D02*
X020367Y007829D01*
X020442Y007905D01*
X020442Y007980D01*
X020367Y008055D01*
X020142Y008055D01*
X020142Y008280D02*
X020367Y008280D01*
X020442Y008205D01*
X020442Y008130D01*
X020367Y008055D01*
X020602Y008205D02*
X020602Y007905D01*
X020677Y007829D01*
X020827Y007829D01*
X020902Y007905D01*
X020902Y008205D01*
X020827Y008280D01*
X020677Y008280D01*
X020602Y008205D01*
X020142Y008280D02*
X020142Y007829D01*
X019981Y007449D02*
X019981Y007149D01*
X019981Y007299D02*
X019531Y007299D01*
X019681Y007149D01*
X019221Y007829D02*
X019221Y008280D01*
X021063Y008280D02*
X021363Y008280D01*
X021213Y008280D02*
X021213Y007829D01*
X021523Y007754D02*
X021823Y007754D01*
X021983Y007905D02*
X022058Y007829D01*
X022209Y007829D01*
X022284Y007905D01*
X022284Y007980D01*
X022209Y008055D01*
X022058Y008055D01*
X021983Y008130D01*
X021983Y008205D01*
X022058Y008280D01*
X022209Y008280D01*
X022284Y008205D01*
X022444Y008280D02*
X022744Y008280D01*
X022594Y008280D02*
X022594Y007829D01*
X022904Y007829D02*
X022904Y008130D01*
X023054Y008280D01*
X023204Y008130D01*
X023204Y007829D01*
X023204Y008055D02*
X022904Y008055D01*
X023365Y008280D02*
X023665Y008280D01*
X023515Y008280D02*
X023515Y007829D01*
X023825Y007905D02*
X023900Y007829D01*
X024050Y007829D01*
X024125Y007905D01*
X024125Y008280D01*
X024285Y008205D02*
X024285Y008130D01*
X024360Y008055D01*
X024510Y008055D01*
X024586Y007980D01*
X024586Y007905D01*
X024510Y007829D01*
X024360Y007829D01*
X024285Y007905D01*
X024285Y008205D02*
X024360Y008280D01*
X024510Y008280D01*
X024586Y008205D01*
X023825Y008280D02*
X023825Y007905D01*
X023774Y003749D02*
X023474Y003749D01*
X023624Y003749D02*
X023624Y003299D01*
X023314Y003299D02*
X023314Y003599D01*
X023164Y003749D01*
X023013Y003599D01*
X023013Y003299D01*
X023013Y003524D02*
X023314Y003524D01*
X022853Y003749D02*
X022553Y003749D01*
X022703Y003749D02*
X022703Y003299D01*
X022393Y003374D02*
X022318Y003299D01*
X022168Y003299D01*
X022093Y003374D01*
X022168Y003524D02*
X022318Y003524D01*
X022393Y003449D01*
X022393Y003374D01*
X022168Y003524D02*
X022093Y003599D01*
X022093Y003674D01*
X022168Y003749D01*
X022318Y003749D01*
X022393Y003674D01*
X021933Y003224D02*
X021632Y003224D01*
X021322Y003299D02*
X021322Y003749D01*
X021172Y003749D02*
X021472Y003749D01*
X021012Y003674D02*
X021012Y003374D01*
X020937Y003299D01*
X020787Y003299D01*
X020712Y003374D01*
X020712Y003674D01*
X020787Y003749D01*
X020937Y003749D01*
X021012Y003674D01*
X020551Y003674D02*
X020551Y003599D01*
X020476Y003524D01*
X020251Y003524D01*
X020091Y003374D02*
X020091Y003674D01*
X020016Y003749D01*
X019866Y003749D01*
X019791Y003674D01*
X019791Y003374D01*
X019866Y003299D01*
X020016Y003299D01*
X020091Y003374D01*
X020251Y003299D02*
X020476Y003299D01*
X020551Y003374D01*
X020551Y003449D01*
X020476Y003524D01*
X020551Y003674D02*
X020476Y003749D01*
X020251Y003749D01*
X020251Y003299D01*
X019631Y003299D02*
X019480Y003449D01*
X019556Y003449D02*
X019330Y003449D01*
X019330Y003299D02*
X019330Y003749D01*
X019556Y003749D01*
X019631Y003674D01*
X019631Y003524D01*
X019556Y003449D01*
X019170Y003224D02*
X018870Y003224D01*
X018710Y003374D02*
X018710Y003674D01*
X018635Y003749D01*
X018410Y003749D01*
X018410Y003299D01*
X018635Y003299D01*
X018710Y003374D01*
X018249Y003299D02*
X017949Y003299D01*
X017949Y003749D01*
X018249Y003749D01*
X018099Y003524D02*
X017949Y003524D01*
X017789Y003299D02*
X017489Y003299D01*
X017489Y003749D01*
X020228Y002662D02*
X020228Y002212D01*
X020228Y002362D02*
X020454Y002362D01*
X020529Y002437D01*
X020529Y002587D01*
X020454Y002662D01*
X020228Y002662D01*
X020379Y002362D02*
X020529Y002212D01*
X020689Y002287D02*
X020764Y002212D01*
X020914Y002212D01*
X020989Y002287D01*
X020989Y002362D01*
X020914Y002437D01*
X020839Y002437D01*
X020914Y002437D02*
X020989Y002512D01*
X020989Y002587D01*
X020914Y002662D01*
X020764Y002662D01*
X020689Y002587D01*
X023934Y003374D02*
X024009Y003299D01*
X024159Y003299D01*
X024235Y003374D01*
X024235Y003749D01*
X024395Y003674D02*
X024395Y003599D01*
X024470Y003524D01*
X024620Y003524D01*
X024695Y003449D01*
X024695Y003374D01*
X024620Y003299D01*
X024470Y003299D01*
X024395Y003374D01*
X024395Y003674D02*
X024470Y003749D01*
X024620Y003749D01*
X024695Y003674D01*
X023934Y003749D02*
X023934Y003374D01*
X017101Y007749D02*
X017101Y008200D01*
X016951Y008200D02*
X017251Y008200D01*
X016790Y008125D02*
X016790Y007825D01*
X016715Y007749D01*
X016565Y007749D01*
X016490Y007825D01*
X016490Y008125D01*
X016565Y008200D01*
X016715Y008200D01*
X016790Y008125D01*
X016330Y008125D02*
X016330Y008050D01*
X016255Y007975D01*
X016030Y007975D01*
X015870Y008125D02*
X015795Y008200D01*
X015644Y008200D01*
X015569Y008125D01*
X015569Y007825D01*
X015644Y007749D01*
X015795Y007749D01*
X015870Y007825D01*
X015870Y008125D01*
X016030Y008200D02*
X016255Y008200D01*
X016330Y008125D01*
X016255Y007975D02*
X016330Y007900D01*
X016330Y007825D01*
X016255Y007749D01*
X016030Y007749D01*
X016030Y008200D01*
X015409Y008125D02*
X015409Y007975D01*
X015334Y007900D01*
X015109Y007900D01*
X015259Y007900D02*
X015409Y007749D01*
X015109Y007749D02*
X015109Y008200D01*
X015334Y008200D01*
X015409Y008125D01*
X014949Y007674D02*
X014649Y007674D01*
X014488Y007825D02*
X014488Y008125D01*
X014413Y008200D01*
X014263Y008200D01*
X014188Y008125D01*
X014188Y007825D01*
X014263Y007749D01*
X014413Y007749D01*
X014488Y007825D01*
X014028Y008200D02*
X013728Y008200D01*
X013878Y008200D02*
X013878Y007749D01*
X013568Y007674D02*
X013267Y007674D01*
X013107Y007825D02*
X013107Y008125D01*
X013032Y008200D01*
X012807Y008200D01*
X012807Y007749D01*
X013032Y007749D01*
X013107Y007825D01*
X012647Y007749D02*
X012647Y008200D01*
X012497Y008050D01*
X012347Y008200D01*
X012347Y007749D01*
X012187Y007825D02*
X012111Y007749D01*
X011961Y007749D01*
X011886Y007825D01*
X011886Y008125D01*
X011961Y008200D01*
X012111Y008200D01*
X012187Y008125D01*
X011002Y008689D02*
X010702Y008689D01*
X010702Y009140D01*
X011002Y009140D01*
X010852Y008915D02*
X010702Y008915D01*
X010541Y009140D02*
X010241Y009140D01*
X010391Y009140D02*
X010391Y008689D01*
X010081Y008689D02*
X010081Y008990D01*
X009931Y009140D01*
X009781Y008990D01*
X009781Y008689D01*
X009621Y008689D02*
X009320Y008689D01*
X009320Y009140D01*
X009160Y009065D02*
X009085Y009140D01*
X008935Y009140D01*
X008860Y009065D01*
X008860Y008765D01*
X008935Y008689D01*
X009085Y008689D01*
X009160Y008765D01*
X009160Y009065D01*
X008700Y009065D02*
X008625Y009140D01*
X008475Y009140D01*
X008400Y009065D01*
X008400Y008765D01*
X008475Y008689D01*
X008625Y008689D01*
X008700Y008765D01*
X008239Y008765D02*
X008239Y009065D01*
X008164Y009140D01*
X008014Y009140D01*
X007939Y009065D01*
X007939Y008765D01*
X008014Y008689D01*
X008164Y008689D01*
X008239Y008765D01*
X007779Y008689D02*
X007779Y009140D01*
X007779Y008915D02*
X007479Y008915D01*
X007319Y009065D02*
X007244Y009140D01*
X007093Y009140D01*
X007018Y009065D01*
X007018Y008765D01*
X007093Y008689D01*
X007244Y008689D01*
X007319Y008765D01*
X007479Y008689D02*
X007479Y009140D01*
X008001Y008039D02*
X008451Y008039D01*
X008451Y007889D02*
X008451Y008189D01*
X008151Y007889D02*
X008001Y008039D01*
X009781Y008915D02*
X010081Y008915D01*
X005824Y008666D02*
X005824Y008366D01*
X005524Y008366D02*
X005524Y008666D01*
X005674Y008816D01*
X005824Y008666D01*
X005824Y008591D02*
X005524Y008591D01*
X005363Y008366D02*
X005063Y008366D01*
X005063Y008816D01*
X004603Y008816D02*
X004603Y008366D01*
X004903Y008366D01*
X004511Y008209D02*
X004511Y007909D01*
X004511Y008059D02*
X004061Y008059D01*
X004211Y007909D01*
X004136Y008366D02*
X004136Y008816D01*
X004296Y008816D02*
X004446Y008816D01*
X004371Y008816D02*
X004371Y008366D01*
X004296Y008366D02*
X004446Y008366D01*
X004136Y008366D02*
X003835Y008816D01*
X003835Y008366D01*
X003675Y008366D02*
X003675Y008666D01*
X003525Y008816D01*
X003375Y008666D01*
X003375Y008366D01*
X003215Y008516D02*
X003215Y008816D01*
X003375Y008591D02*
X003675Y008591D01*
X003215Y008516D02*
X003065Y008366D01*
X002915Y008516D01*
X002915Y008816D01*
X002998Y009500D02*
X002998Y009800D01*
X003148Y009950D01*
X003298Y009800D01*
X003298Y009500D01*
X003458Y009500D02*
X003458Y009950D01*
X003758Y009500D01*
X003758Y009950D01*
X003919Y009950D02*
X004069Y009950D01*
X003994Y009950D02*
X003994Y009500D01*
X003919Y009500D02*
X004069Y009500D01*
X004225Y009500D02*
X004526Y009500D01*
X004686Y009500D02*
X004986Y009500D01*
X005146Y009500D02*
X005146Y009800D01*
X005296Y009950D01*
X005447Y009800D01*
X005447Y009500D01*
X005447Y009725D02*
X005146Y009725D01*
X004686Y009950D02*
X004686Y009500D01*
X004225Y009500D02*
X004225Y009950D01*
X003298Y009725D02*
X002998Y009725D01*
X002838Y009650D02*
X002838Y009950D01*
X002838Y009650D02*
X002687Y009500D01*
X002537Y009650D01*
X002537Y009950D01*
X001917Y009875D02*
X001917Y009575D01*
X001842Y009500D01*
X001617Y009500D01*
X001617Y009950D01*
X001842Y009950D01*
X001917Y009875D01*
X001456Y009950D02*
X001156Y009950D01*
X001156Y009500D01*
X001456Y009500D01*
X001306Y009725D02*
X001156Y009725D01*
X000996Y009500D02*
X000696Y009500D01*
X000696Y009950D01*
X002077Y009425D02*
X002377Y009425D01*
X003200Y004160D02*
X003425Y004160D01*
X003500Y004085D01*
X003500Y003935D01*
X003425Y003860D01*
X003200Y003860D01*
X003350Y003860D02*
X003500Y003709D01*
X003661Y003709D02*
X003961Y003709D01*
X003811Y003709D02*
X003811Y004160D01*
X003661Y004010D01*
X003200Y004160D02*
X003200Y003709D01*
X008391Y003649D02*
X008391Y004100D01*
X008616Y004100D01*
X008691Y004025D01*
X008691Y003875D01*
X008616Y003800D01*
X008391Y003800D01*
X008541Y003800D02*
X008691Y003649D01*
X008851Y003649D02*
X009152Y003950D01*
X009152Y004025D01*
X009077Y004100D01*
X008926Y004100D01*
X008851Y004025D01*
X008851Y003649D02*
X009152Y003649D01*
X009272Y003240D02*
X008971Y003240D01*
X008971Y002789D01*
X009272Y002789D01*
X009432Y002789D02*
X009657Y002789D01*
X009732Y002865D01*
X009732Y003165D01*
X009657Y003240D01*
X009432Y003240D01*
X009432Y002789D01*
X009122Y003015D02*
X008971Y003015D01*
X008811Y002789D02*
X008511Y002789D01*
X008511Y003240D01*
X009892Y002714D02*
X010192Y002714D01*
X010353Y002865D02*
X010428Y002789D01*
X010578Y002789D01*
X010653Y002865D01*
X010813Y002789D02*
X010813Y003240D01*
X010653Y003165D02*
X010578Y003240D01*
X010428Y003240D01*
X010353Y003165D01*
X010353Y002865D01*
X010813Y003015D02*
X011113Y003015D01*
X011273Y003165D02*
X011273Y002865D01*
X011348Y002789D01*
X011499Y002789D01*
X011574Y002865D01*
X011574Y003165D01*
X011499Y003240D01*
X011348Y003240D01*
X011273Y003165D01*
X011113Y003240D02*
X011113Y002789D01*
X011734Y002865D02*
X011734Y003165D01*
X011809Y003240D01*
X011959Y003240D01*
X012034Y003165D01*
X012194Y003165D02*
X012194Y002865D01*
X012269Y002789D01*
X012419Y002789D01*
X012494Y002865D01*
X012494Y003165D01*
X012419Y003240D01*
X012269Y003240D01*
X012194Y003165D01*
X012034Y002865D02*
X011959Y002789D01*
X011809Y002789D01*
X011734Y002865D01*
X012655Y002789D02*
X012955Y002789D01*
X013115Y002789D02*
X013115Y003090D01*
X013265Y003240D01*
X013415Y003090D01*
X013415Y002789D01*
X013725Y002789D02*
X013725Y003240D01*
X013575Y003240D02*
X013876Y003240D01*
X014036Y003240D02*
X014036Y002789D01*
X014336Y002789D01*
X014186Y003015D02*
X014036Y003015D01*
X014036Y003240D02*
X014336Y003240D01*
X013415Y003015D02*
X013115Y003015D01*
X012655Y003240D02*
X012655Y002789D01*
X013524Y012659D02*
X013422Y012761D01*
X013827Y014130D02*
X013725Y014232D01*
X013827Y014130D02*
X014030Y014130D01*
X014132Y014232D01*
X014132Y014435D01*
X014030Y014537D01*
X013928Y014537D01*
X013725Y014435D01*
X013725Y014741D01*
X014132Y014741D01*
X014333Y014741D02*
X014333Y014334D01*
X014536Y014130D01*
X014740Y014334D01*
X014740Y014741D01*
X014740Y015120D02*
X014434Y015120D01*
X014333Y015222D01*
X014333Y015425D01*
X014434Y015527D01*
X014740Y015527D01*
X014740Y015731D02*
X014740Y015120D01*
X014132Y015120D02*
X014132Y015425D01*
X014030Y015527D01*
X013725Y015527D01*
X013725Y015120D01*
X013524Y015222D02*
X013524Y015425D01*
X013321Y015425D01*
X013117Y015222D02*
X013117Y015629D01*
X013219Y015731D01*
X013422Y015731D01*
X013524Y015629D01*
X013524Y015222D02*
X013422Y015120D01*
X013219Y015120D01*
X013117Y015222D01*
X013321Y014639D02*
X013321Y014232D01*
X013117Y014435D02*
X013524Y014435D01*
X011631Y015956D02*
X011331Y015956D01*
X011481Y015956D02*
X011481Y016406D01*
X011331Y016256D01*
X011170Y016106D02*
X011170Y016406D01*
X010870Y016406D02*
X010870Y016106D01*
X011020Y015956D01*
X011170Y016106D01*
X010710Y016106D02*
X010710Y016031D01*
X010635Y015956D01*
X010485Y015956D01*
X010410Y016031D01*
X010485Y016181D02*
X010635Y016181D01*
X010710Y016106D01*
X010710Y016331D02*
X010635Y016406D01*
X010485Y016406D01*
X010410Y016331D01*
X010410Y016256D01*
X010485Y016181D01*
X017373Y013445D02*
X017373Y013140D01*
D13*
X011736Y004834D02*
X010236Y004834D01*
X002556Y004804D02*
X001056Y004804D01*
X021826Y004084D02*
X023326Y004084D01*
D14*
X023380Y004127D01*
X023432Y004173D01*
X023481Y004222D01*
X023528Y004274D01*
X023571Y004328D01*
X023612Y004384D01*
X023649Y004443D01*
X023683Y004503D01*
X023713Y004566D01*
X023740Y004629D01*
X023764Y004695D01*
X023784Y004761D01*
X023800Y004829D01*
X023812Y004897D01*
X023820Y004966D01*
X023825Y005035D01*
X023826Y005105D01*
X023823Y005174D01*
X023816Y005243D01*
X023805Y005311D01*
X023791Y005379D01*
X023772Y005446D01*
X023750Y005512D01*
X023725Y005577D01*
X023696Y005640D01*
X023663Y005701D01*
X023627Y005760D01*
X023588Y005817D01*
X023546Y005873D01*
X023501Y005925D01*
X023453Y005975D01*
X023402Y006022D01*
X023348Y006067D01*
X023293Y006108D01*
X023235Y006146D01*
X023175Y006181D01*
X023113Y006213D01*
X023050Y006241D01*
X022985Y006265D01*
X022919Y006286D01*
X022851Y006303D01*
X022783Y006317D01*
X022714Y006326D01*
X022645Y006332D01*
X022576Y006334D01*
X022507Y006332D01*
X022438Y006326D01*
X022369Y006317D01*
X022301Y006303D01*
X022233Y006286D01*
X022167Y006265D01*
X022102Y006241D01*
X022039Y006213D01*
X021977Y006181D01*
X021917Y006146D01*
X021859Y006108D01*
X021804Y006067D01*
X021750Y006022D01*
X021699Y005975D01*
X021651Y005925D01*
X021606Y005873D01*
X021564Y005817D01*
X021525Y005760D01*
X021489Y005701D01*
X021456Y005640D01*
X021427Y005577D01*
X021402Y005512D01*
X021380Y005446D01*
X021361Y005379D01*
X021347Y005311D01*
X021336Y005243D01*
X021329Y005174D01*
X021326Y005105D01*
X021327Y005035D01*
X021332Y004966D01*
X021340Y004897D01*
X021352Y004829D01*
X021368Y004761D01*
X021388Y004695D01*
X021412Y004629D01*
X021439Y004566D01*
X021469Y004503D01*
X021503Y004443D01*
X021540Y004384D01*
X021581Y004328D01*
X021624Y004274D01*
X021671Y004222D01*
X021720Y004173D01*
X021772Y004127D01*
X021826Y004084D01*
X011736Y004834D02*
X011790Y004877D01*
X011842Y004923D01*
X011891Y004972D01*
X011938Y005024D01*
X011981Y005078D01*
X012022Y005134D01*
X012059Y005193D01*
X012093Y005253D01*
X012123Y005316D01*
X012150Y005379D01*
X012174Y005445D01*
X012194Y005511D01*
X012210Y005579D01*
X012222Y005647D01*
X012230Y005716D01*
X012235Y005785D01*
X012236Y005855D01*
X012233Y005924D01*
X012226Y005993D01*
X012215Y006061D01*
X012201Y006129D01*
X012182Y006196D01*
X012160Y006262D01*
X012135Y006327D01*
X012106Y006390D01*
X012073Y006451D01*
X012037Y006510D01*
X011998Y006567D01*
X011956Y006623D01*
X011911Y006675D01*
X011863Y006725D01*
X011812Y006772D01*
X011758Y006817D01*
X011703Y006858D01*
X011645Y006896D01*
X011585Y006931D01*
X011523Y006963D01*
X011460Y006991D01*
X011395Y007015D01*
X011329Y007036D01*
X011261Y007053D01*
X011193Y007067D01*
X011124Y007076D01*
X011055Y007082D01*
X010986Y007084D01*
X010917Y007082D01*
X010848Y007076D01*
X010779Y007067D01*
X010711Y007053D01*
X010643Y007036D01*
X010577Y007015D01*
X010512Y006991D01*
X010449Y006963D01*
X010387Y006931D01*
X010327Y006896D01*
X010269Y006858D01*
X010214Y006817D01*
X010160Y006772D01*
X010109Y006725D01*
X010061Y006675D01*
X010016Y006623D01*
X009974Y006567D01*
X009935Y006510D01*
X009899Y006451D01*
X009866Y006390D01*
X009837Y006327D01*
X009812Y006262D01*
X009790Y006196D01*
X009771Y006129D01*
X009757Y006061D01*
X009746Y005993D01*
X009739Y005924D01*
X009736Y005855D01*
X009737Y005785D01*
X009742Y005716D01*
X009750Y005647D01*
X009762Y005579D01*
X009778Y005511D01*
X009798Y005445D01*
X009822Y005379D01*
X009849Y005316D01*
X009879Y005253D01*
X009913Y005193D01*
X009950Y005134D01*
X009991Y005078D01*
X010034Y005024D01*
X010081Y004972D01*
X010130Y004923D01*
X010182Y004877D01*
X010236Y004834D01*
X002556Y004804D02*
X002610Y004847D01*
X002662Y004893D01*
X002711Y004942D01*
X002758Y004994D01*
X002801Y005048D01*
X002842Y005104D01*
X002879Y005163D01*
X002913Y005223D01*
X002943Y005286D01*
X002970Y005349D01*
X002994Y005415D01*
X003014Y005481D01*
X003030Y005549D01*
X003042Y005617D01*
X003050Y005686D01*
X003055Y005755D01*
X003056Y005825D01*
X003053Y005894D01*
X003046Y005963D01*
X003035Y006031D01*
X003021Y006099D01*
X003002Y006166D01*
X002980Y006232D01*
X002955Y006297D01*
X002926Y006360D01*
X002893Y006421D01*
X002857Y006480D01*
X002818Y006537D01*
X002776Y006593D01*
X002731Y006645D01*
X002683Y006695D01*
X002632Y006742D01*
X002578Y006787D01*
X002523Y006828D01*
X002465Y006866D01*
X002405Y006901D01*
X002343Y006933D01*
X002280Y006961D01*
X002215Y006985D01*
X002149Y007006D01*
X002081Y007023D01*
X002013Y007037D01*
X001944Y007046D01*
X001875Y007052D01*
X001806Y007054D01*
X001737Y007052D01*
X001668Y007046D01*
X001599Y007037D01*
X001531Y007023D01*
X001463Y007006D01*
X001397Y006985D01*
X001332Y006961D01*
X001269Y006933D01*
X001207Y006901D01*
X001147Y006866D01*
X001089Y006828D01*
X001034Y006787D01*
X000980Y006742D01*
X000929Y006695D01*
X000881Y006645D01*
X000836Y006593D01*
X000794Y006537D01*
X000755Y006480D01*
X000719Y006421D01*
X000686Y006360D01*
X000657Y006297D01*
X000632Y006232D01*
X000610Y006166D01*
X000591Y006099D01*
X000577Y006031D01*
X000566Y005963D01*
X000559Y005894D01*
X000556Y005825D01*
X000557Y005755D01*
X000562Y005686D01*
X000570Y005617D01*
X000582Y005549D01*
X000598Y005481D01*
X000618Y005415D01*
X000642Y005349D01*
X000669Y005286D01*
X000699Y005223D01*
X000733Y005163D01*
X000770Y005104D01*
X000811Y005048D01*
X000854Y004994D01*
X000901Y004942D01*
X000950Y004893D01*
X001002Y004847D01*
X001056Y004804D01*
D15*
X002376Y003904D03*
X005216Y003904D03*
X007566Y003864D03*
X010406Y003864D03*
X019196Y002374D03*
X022036Y002374D03*
D16*
X017166Y005054D02*
X017066Y005054D01*
X017066Y006004D01*
X017166Y006004D01*
X014866Y006054D02*
X014866Y005054D01*
X014766Y005054D01*
X014766Y006054D02*
X014866Y006054D01*
M02*
