%
M48
M72
T01C0.0320
T02C0.0360
T03C0.0400
T04C0.1260
%
T01
X1796Y3904
X1806Y5304
X1806Y6304
X5796Y3904
X6986Y3864
X10986Y3864
X10986Y5334
X10986Y6334
X18616Y2374
X22616Y2374
X22576Y4584
X22576Y5584
T02
X11496Y10434
X10496Y10434
X10496Y11434
X11496Y11434
X11496Y12434
X10496Y12434
X10496Y13434
X11496Y13434
X11496Y14434
X10496Y14434
X10496Y15434
X11496Y15434
T03
X8226Y7324
X8226Y6324
X8226Y5324
X4286Y5344
X4286Y6344
X4286Y7344
X15076Y6834
X16856Y6834
X19756Y6584
X19756Y5584
X19756Y4584
X16856Y4274
X15076Y4274
T04
X1675Y1675
X1675Y15061
X23722Y15061
X23722Y1675
M30
